HIERARCHY
ROOT Hips
{
	OFFSET 0.000000 0.000000 0.000000
	CHANNELS 6 Xposition Yposition Zposition Yrotation Xrotation Zrotation
	JOINT Chest
	{
		OFFSET 0.000000 -0.009281 11.569106
		CHANNELS 3 Yrotation Xrotation Zrotation
		JOINT Chest2
		{
			OFFSET -0.000000 0.016865 9.269641
			CHANNELS 3 Yrotation Xrotation Zrotation
			JOINT Chest3
			{
				OFFSET -0.000000 0.000001 8.374491
				CHANNELS 3 Yrotation Xrotation Zrotation
				JOINT Chest4
				{
					OFFSET -0.000000 0.000001 8.374493
					CHANNELS 3 Yrotation Xrotation Zrotation
					JOINT Neck
					{
						OFFSET -0.000000 0.000002 12.152554
						CHANNELS 3 Yrotation Xrotation Zrotation
						JOINT Head
						{
							OFFSET -0.000000 0.040101 7.802319
							CHANNELS 3 Yrotation Xrotation Zrotation
							End Site
							{
								OFFSET -0.000000 0.020947 14.853096
							}
						}
					}
					JOINT RightCollar
					{
						OFFSET 2.894404 0.000001 6.791374
						CHANNELS 3 Yrotation Xrotation Zrotation
						JOINT RightShoulder
						{
							OFFSET 13.574684 0.000001 0.000000
							CHANNELS 3 Yrotation Xrotation Zrotation
							JOINT RightElbow
							{
								OFFSET 23.923903 0.000002 0.000000
								CHANNELS 3 Yrotation Xrotation Zrotation
								JOINT RightWrist
								{
									OFFSET 19.846718 0.012767 0.000000
									CHANNELS 3 Yrotation Xrotation Zrotation
									End Site
									{
										OFFSET 14.973145 0.000001 0.000000
									}
								}
							}
						}
					}
					JOINT LeftCollar
					{
						OFFSET -2.894404 0.000001 6.791374
						CHANNELS 3 Yrotation Xrotation Zrotation
						JOINT LeftShoulder
						{
							OFFSET -13.574684 -0.000001 0.000000
							CHANNELS 3 Yrotation Xrotation Zrotation
							JOINT LeftElbow
							{
								OFFSET -23.923903 -0.000002 0.000000
								CHANNELS 3 Yrotation Xrotation Zrotation
								JOINT LeftWrist
								{
									OFFSET -19.846718 0.012763 0.000000
									CHANNELS 3 Yrotation Xrotation Zrotation
									End Site
									{
										OFFSET -14.973145 -0.000001 0.000000
									}
								}
							}
						}
					}
				}
			}
		}
	}
	JOINT RightHip
	{
		OFFSET 9.469263 0.004643 0.045487
		CHANNELS 3 Yrotation Xrotation Zrotation
		JOINT RightKnee
		{
			OFFSET 0.000000 0.002661 -40.478676
			CHANNELS 3 Yrotation Xrotation Zrotation
			JOINT RightAnkle
			{
				OFFSET 0.000000 0.049106 -35.224068
				CHANNELS 3 Yrotation Xrotation Zrotation
				JOINT RightToe
				{
					OFFSET -0.000001 12.539529 -6.151390
					CHANNELS 3 Yrotation Xrotation Zrotation
					End Site
					{
						OFFSET -0.000001 5.044994 -1.291870
					}
				}
			}
		}
	}
	JOINT LeftHip
	{
		OFFSET -9.469263 0.004641 0.045487
		CHANNELS 3 Yrotation Xrotation Zrotation
		JOINT LeftKnee
		{
			OFFSET 0.000000 0.002661 -40.478676
			CHANNELS 3 Yrotation Xrotation Zrotation
			JOINT LeftAnkle
			{
				OFFSET 0.000000 0.049106 -35.224068
				CHANNELS 3 Yrotation Xrotation Zrotation
				JOINT LeftToe
				{
					OFFSET -0.000001 12.539529 -6.151390
					CHANNELS 3 Yrotation Xrotation Zrotation
					End Site
					{
						OFFSET -0.000001 5.044994 -1.291870
					}
				}
			}
		}
	}
}
MOTION
Frames: 16
Frame Time: 0.016667
10.732041 5.081027 82.973183 -5.980854 -6.243790 -126.196201 1.722230 -4.374063 -5.125055 0.714996 -1.967703 -2.142302 0.714996 -1.967704 -2.142300 0.529303 -1.478308 -1.604269 -0.762839 -24.583027 -10.642037 -3.907598 -10.168023 -19.260109 -4.071939 -0.044425 6.311561 45.106320 -20.114675 42.876939 -8.818093 -41.279420 -2.042723 -42.760891 12.175469 51.484153 -12.089347 -2.881947 -7.704721 -60.502512 -25.227548 -64.292441 -56.789212 -3.743061 -41.773734 -26.463787 32.397257 5.898987 0.658857 -6.939064 5.108211 -1.219936 -6.428640 1.902133 3.205592 5.086316 7.525338 -0.129664 -0.130075 -0.034019 -0.164562 -12.277559 6.066250 -0.206056 -3.258204 10.299561 0.453897 7.403487 -0.191013 0.061090 0.142046 0.030506 
10.732745 5.106214 82.976761 -5.924388 -6.222060 -126.257263 1.728914 -4.294453 -5.153271 0.716963 -1.933472 -2.155839 0.716964 -1.933472 -2.155835 0.530856 -1.452658 -1.614454 -0.813324 -24.616603 -10.619932 -3.987756 -10.235448 -19.230515 -4.150504 -0.125999 6.316160 44.835804 -19.917054 42.900934 -8.820619 -41.460355 -1.963364 -42.585885 11.934406 51.416800 -12.086106 -3.231510 -7.712315 -60.296767 -25.017118 -65.631834 -55.892114 -4.365265 -42.633330 -28.703750 29.179169 8.369658 0.647314 -6.894024 5.169067 -1.225938 -6.372938 1.856109 3.261934 5.047403 7.574409 -0.127164 -0.128438 -0.035432 -0.179602 -12.232325 6.148724 -0.195289 -3.210120 10.290851 0.449547 7.364199 -0.209921 0.064499 0.145386 0.031605 
10.731393 5.128051 82.980698 -5.869160 -6.202520 -126.320360 1.728591 -4.230379 -5.171621 0.715979 -1.905307 -2.164603 0.715979 -1.905308 -2.164608 0.530192 -1.431540 -1.621079 -0.848138 -24.643063 -10.607600 -4.043224 -10.288398 -19.215074 -4.207421 -0.198601 6.309849 44.611784 -19.680678 42.912166 -8.843726 -41.638571 -1.848513 -42.459062 11.782197 51.349898 -12.067944 -3.602136 -7.726042 -60.185230 -24.701087 -66.961173 -55.030336 -5.510857 -43.503824 -30.210927 25.584574 11.151512 0.642147 -6.856702 5.227087 -1.240235 -6.306930 1.818575 3.322338 5.002647 7.631231 -0.127060 -0.127101 -0.034454 -0.191688 -12.194505 6.227367 -0.185048 -3.152006 10.257596 0.451744 7.320197 -0.199195 0.063797 0.147426 0.031690 
10.731811 5.146108 82.984367 -5.810534 -6.183630 -126.387583 1.723286 -4.181466 -5.176484 0.713723 -1.882936 -2.166774 0.713722 -1.882936 -2.166771 0.528574 -1.414756 -1.622734 -0.866045 -24.663031 -10.608434 -4.072476 -10.328207 -19.219597 -4.228837 -0.200829 6.295132 44.444232 -19.411994 42.870864 -8.860585 -41.801140 -1.711865 -42.339974 11.678129 51.313743 -12.045787 -3.936032 -7.748679 -60.056993 -24.364017 -68.303278 -54.219438 -7.014444 -44.335116 -31.361982 22.207829 13.999738 0.640940 -6.824754 5.237651 -1.253234 -6.226878 1.825680 3.374691 4.955077 7.650398 -0.127329 -0.128716 -0.035066 -0.202475 -12.161350 6.294417 -0.171174 -3.085678 10.236630 0.450371 7.276091 -0.190889 0.062846 0.147507 0.032413 
10.731541 5.159484 82.987694 -5.749413 -6.165432 -126.458384 1.718304 -4.135840 -5.175358 0.711832 -1.862367 -2.166464 0.711832 -1.862368 -2.166462 0.527231 -1.399322 -1.622533 -0.877185 -24.689071 -10.615829 -4.090322 -10.378891 -19.233859 -4.245906 -0.174510 6.276358 44.277630 -19.172283 42.841047 -8.843247 -41.898327 -1.611166 -42.183016 11.601756 51.293641 -12.041200 -4.186116 -7.763893 -59.819555 -24.112484 -69.556106 -53.581844 -8.637103 -45.229263 -32.180607 19.149822 16.978846 0.633019 -6.792555 5.228939 -1.257686 -6.145661 1.848433 3.427312 4.906461 7.712251 -0.129695 -0.129460 -0.036286 -0.203569 -12.129015 6.330175 -0.169536 -3.020064 10.251649 0.450093 7.235704 -0.185645 0.062354 0.146665 0.033309 
10.733221 5.170979 82.991348 -5.688466 -6.150333 -126.535579 1.722166 -4.093440 -5.187083 0.713930 -1.843696 -2.171610 0.713931 -1.843696 -2.171614 0.528857 -1.385332 -1.626416 -0.901281 -24.720143 -10.613098 -4.128220 -10.439759 -19.232725 -4.295002 -0.162588 6.286734 44.076802 -19.033575 42.859338 -8.877171 -41.912609 -1.536583 -42.030730 11.460420 51.264074 -12.034625 -4.436400 -7.759868 -59.517019 -23.871163 -70.739019 -53.167419 -10.385532 -46.215341 -32.401902 15.899345 20.075215 0.639627 -6.761070 5.236535 -1.273703 -6.070131 1.851548 3.484984 4.859077 7.750320 -0.135260 -0.129343 -0.038592 -0.202617 -12.097799 6.354537 -0.168996 -2.962271 10.290138 0.448778 7.200747 -0.184696 0.060896 0.147291 0.034600 
10.733549 5.177864 82.995728 -5.629688 -6.142183 -126.623128 1.732280 -4.041078 -5.207861 0.718671 -1.821070 -2.180849 0.718671 -1.821070 -2.180854 0.532465 -1.368390 -1.633359 -0.939378 -24.763489 -10.597629 -4.186480 -10.523981 -19.211321 -4.356863 -0.187117 6.320982 43.878559 -18.917966 42.889746 -8.953531 -41.873544 -1.446867 -41.875883 11.248836 51.138644 -12.036415 -4.741996 -7.726946 -59.184422 -23.556569 -71.830989 -52.681714 -12.415477 -47.315067 -32.156664 12.389902 23.003083 0.650171 -6.735582 5.270913 -1.293021 -5.995393 1.824538 3.550884 4.809123 7.808960 -0.142148 -0.127500 -0.038844 -0.196439 -12.072052 6.380968 -0.168484 -2.910704 10.328152 0.446777 7.170366 -0.175437 0.057870 0.148410 0.035576 
10.733934 5.180257 83.000099 -5.577177 -6.139298 -126.725704 1.728357 -3.991540 -5.213726 0.717038 -1.799223 -2.182583 0.717038 -1.799223 -2.182583 0.531315 -1.352001 -1.634694 -0.962428 -24.807655 -10.584610 -4.218443 -10.607575 -19.190673 -4.396484 -0.224996 6.326914 43.764297 -18.722016 42.928699 -8.974112 -41.877269 -1.371977 -41.763735 11.051314 50.991535 -12.026106 -5.049053 -7.688151 -58.958733 -23.197759 -72.793028 -51.971357 -14.744360 -48.430788 -31.775826 8.801463 25.733016 0.662964 -6.719279 5.305191 -1.312611 -5.919492 1.806943 3.614365 4.760351 7.893110 -0.148867 -0.127884 -0.038379 -0.190448 -12.055517 6.404974 -0.168071 -2.864851 10.371682 0.444452 7.144436 -0.154457 0.053418 0.151098 0.035986 
10.733612 5.179597 83.003128 -5.528236 -6.137863 -126.837228 1.712140 -3.964605 -5.202601 0.709459 -1.787037 -2.176376 0.709460 -1.787038 -2.176382 0.525694 -1.342826 -1.630079 -0.961695 -24.832324 -10.579671 -4.212621 -10.652337 -19.180061 -4.401160 -0.214527 6.297641 43.696019 -18.489348 42.964325 -8.964589 -41.923069 -1.295962 -41.700794 10.945353 50.874039 -12.004369 -5.282508 -7.653508 -58.895587 -22.849469 -73.588103 -51.009786 -17.285225 -49.515173 -31.313084 5.338614 28.176783 0.677604 -6.706076 5.321944 -1.338061 -5.844999 1.825268 3.675869 4.716657 7.957567 -0.153380 -0.131355 -0.038576 -0.183350 -12.037046 6.424662 -0.170213 -2.836196 10.425351 0.443487 7.131565 -0.131603 0.046504 0.151939 0.036168 
10.728099 5.176512 83.004776 -5.484949 -6.138326 -126.951497 1.702648 -3.946429 -5.206935 0.704081 -1.779204 -2.176796 0.704081 -1.779204 -2.176798 0.521688 -1.336933 -1.630424 -0.972754 -24.847938 -10.560160 -4.225805 -10.680570 -19.146753 -4.432555 -0.225993 6.299408 43.614798 -18.298524 43.050020 -8.996826 -41.929172 -1.233068 -41.646389 10.868317 50.795222 -12.016595 -5.493169 -7.578328 -58.841499 -22.510803 -74.304562 -49.954450 -19.880608 -50.582117 -30.804703 2.045931 30.310648 0.690176 -6.694187 5.347948 -1.362186 -5.775885 1.848947 3.732949 4.676068 8.056959 -0.154049 -0.136635 -0.037460 -0.175901 -12.016235 6.435765 -0.171996 -2.820552 10.498899 0.441816 7.126414 -0.112258 0.037784 0.149921 0.035243 
10.720697 5.172527 83.006561 -5.449843 -6.145568 -127.061135 1.686766 -3.930124 -5.204528 0.696987 -1.771674 -2.174383 0.696987 -1.771674 -2.174380 0.516400 -1.331257 -1.628639 -0.980548 -24.869093 -10.540689 -4.232439 -10.718494 -19.112382 -4.455749 -0.239753 6.283672 43.535571 -18.221316 43.141992 -9.039765 -41.819196 -1.210495 -41.575208 10.768972 50.700057 -12.034640 -5.696044 -7.513953 -58.696911 -22.188431 -74.943909 -48.895579 -22.401303 -51.746264 -30.547758 -1.622396 32.098214 0.719590 -6.684662 5.374608 -1.396249 -5.724169 1.861156 3.782631 4.642163 8.097287 -0.152148 -0.140276 -0.037371 -0.165904 -12.002708 6.446124 -0.174226 -2.810855 10.583228 0.440300 7.125778 -0.104561 0.028731 0.146697 0.034076 
10.709035 5.166042 83.009247 -5.418446 -6.159703 -127.174653 1.665531 -3.929669 -5.195896 0.687738 -1.771241 -2.169725 0.687738 -1.771242 -2.169721 0.509480 -1.330894 -1.625176 -0.984303 -24.884467 -10.518121 -4.232013 -10.744740 -19.071886 -4.466456 -0.261631 6.251932 43.492865 -18.140397 43.257432 -9.054184 -41.674556 -1.218164 -41.551688 10.671622 50.540237 -12.061033 -5.830334 -7.475493 -58.517577 -21.848090 -75.407406 -47.686919 -25.054763 -53.160134 -30.090651 -5.291876 33.858474 0.746951 -6.679119 5.396204 -1.423127 -5.673951 1.885023 3.824201 4.602780 8.137854 -0.147091 -0.139397 -0.036634 -0.153513 -11.993219 6.485646 -0.167915 -2.805399 10.649324 0.432701 7.124442 -0.099798 0.019908 0.144700 0.032352 
10.694960 5.157473 83.011955 -5.388280 -6.174218 -127.289209 1.633016 -3.928385 -5.170115 0.672983 -1.770092 -2.157895 0.672983 -1.770092 -2.157894 0.498453 -1.329966 -1.616353 -0.975987 -24.901999 -10.501513 -4.211164 -10.773712 -19.039064 -4.434327 -0.319264 6.196687 43.489338 -18.035562 43.377288 -9.074956 -41.540084 -1.228709 -41.519996 10.612589 50.404812 -12.032385 -6.032117 -7.458395 -58.379444 -21.445674 -75.806255 -46.094853 -27.984526 -54.874184 -29.648519 -8.997498 35.478376 0.773677 -6.668758 5.408893 -1.447864 -5.635104 1.925887 3.859733 4.564562 8.233238 -0.140967 -0.135632 -0.035580 -0.135444 -11.984248 6.560177 -0.168067 -2.802268 10.702060 0.422578 7.126966 -0.111849 0.014057 0.141510 0.030423 
10.677230 5.146236 83.014297 -5.350337 -6.188195 -127.412712 1.600887 -3.945396 -5.134283 0.658010 -1.776891 -2.141609 0.658009 -1.776891 -2.141609 0.487246 -1.334995 -1.604168 -0.959888 -24.898621 -10.483848 -4.179130 -10.762791 -19.003840 -4.389010 -0.373744 6.145383 43.505180 -17.888055 43.508110 -9.075826 -41.415791 -1.225861 -41.537754 10.526470 50.340451 -12.014091 -6.109872 -7.437312 -58.245121 -21.134301 -76.024725 -43.850067 -31.106672 -57.130684 -29.215895 -12.348734 37.057608 0.811901 -6.645793 5.438654 -1.474239 -5.605565 1.959697 3.887852 4.526090 8.303305 -0.134477 -0.130587 -0.034661 -0.105724 -11.968379 6.673160 -0.179722 -2.802745 10.746129 0.411113 7.135432 -0.143285 0.011187 0.136774 0.030086 
10.653578 5.130442 83.016602 -5.311567 -6.202565 -127.544111 1.573126 -3.980875 -5.101375 0.644619 -1.791790 -2.126776 0.644619 -1.791790 -2.126773 0.477195 -1.346107 -1.593063 -0.947213 -24.880325 -10.454866 -4.152726 -10.723581 -18.950080 -4.344517 -0.337351 6.107080 43.565405 -17.810869 43.585558 -9.093072 -41.283839 -1.210109 -41.578872 10.527008 50.321023 -12.028052 -6.046878 -7.403245 -58.137518 -20.943720 -76.072632 -41.151217 -34.156164 -59.672303 -28.804376 -15.359982 38.350611 0.860746 -6.615192 5.504501 -1.505859 -5.588122 1.968205 3.912747 4.489037 8.340521 -0.128430 -0.124956 -0.032252 -0.070886 -11.948516 6.798640 -0.191911 -2.811605 10.773029 0.396833 7.148183 -0.161619 0.008080 0.131991 0.029220 
10.626525 5.112765 83.019859 -5.281433 -6.218539 -127.669828 1.546241 -4.024346 -5.080447 0.632184 -1.810987 -2.116630 0.632184 -1.810987 -2.116637 0.467831 -1.360451 -1.585466 -0.941437 -24.862636 -10.410710 -4.135122 -10.684824 -18.870745 -4.322500 -0.312426 6.096894 43.646507 -17.753760 43.661984 -9.096465 -41.096910 -1.179567 -41.590224 10.650300 50.343316 -12.061522 -5.941562 -7.341980 -57.995327 -20.732553 -76.038768 -38.570809 -37.048565 -62.156613 -28.171467 -18.410959 39.340459 0.905377 -6.587875 5.574292 -1.533170 -5.579236 1.974600 3.936078 4.452265 8.393260 -0.124642 -0.117626 -0.029551 -0.038423 -11.929344 6.885932 -0.199955 -2.829555 10.800224 0.384757 7.159442 -0.148876 0.002321 0.130396 0.026214 
